<?xml version="1.0" standalone="no"?><!DOCTYPE svg PUBLIC "-//W3C//DTD SVG 1.1//EN" "http://www.w3.org/Graphics/SVG/1.1/DTD/svg11.dtd"><svg t="1515395007130" class="icon" style="" viewBox="0 0 1024 1024" version="1.1" xmlns="http://www.w3.org/2000/svg" p-id="2232" xmlns:xlink="http://www.w3.org/1999/xlink" width="20" height="20"><defs><style type="text/css"></style></defs><path d="M883.115093 864.768a511.445333 511.445333 0 0 1-253.312 145.621333A146.090667 146.090667 0 0 0 512.000427 950.869333a146.090667 146.090667 0 0 0-117.76 59.52 511.445333 511.445333 0 0 1-253.354667-145.621333A164.821333 164.821333 0 0 0 22.784427 663.466667 511.872 511.872 0 0 1 0.000427 512c0-52.736 7.978667-103.594667 22.784-151.466667a164.650667 164.650667 0 0 0 118.101333-201.301333A511.445333 511.445333 0 0 1 394.240427 13.653333 146.090667 146.090667 0 0 0 512.000427 73.130667 146.090667 146.090667 0 0 0 629.760427 13.653333a511.445333 511.445333 0 0 1 253.354666 145.621334 164.821333 164.821333 0 0 0 118.101334 201.301333C1016.02176 408.405333 1024.000427 459.264 1024.000427 512c0 52.736-7.978667 103.594667-22.784 151.466667a164.650667 164.650667 0 0 0-118.101334 201.301333z m-60.245333-41.898667a219.52 219.52 0 0 1 133.205333-201.856c8.661333-35.328 13.056-71.850667 13.056-109.013333 0-37.12-4.394667-73.685333-13.056-109.013333a219.52 219.52 0 0 1-132.010666-225.024 456.618667 456.618667 0 0 0-176.341334-102.656A200.704 200.704 0 0 1 512.000427 128c-51.2 0-99.242667-19.285333-135.68-52.693333a456.618667 456.618667 0 0 0-176.384 102.656 219.52 219.52 0 0 1-132.010667 225.024A458.368 458.368 0 0 0 54.86976 512c0 37.12 4.394667 73.685333 13.056 109.013333a219.52 219.52 0 0 1 132.010667 225.024 456.618667 456.618667 0 0 0 176.341333 102.656A200.704 200.704 0 0 1 512.000427 896c51.2 0 99.242667 19.285333 135.68 52.693333a456.618667 456.618667 0 0 0 176.384-102.656 221.312 221.312 0 0 1-1.194667-23.168zM621.65376 321.962667a219.392 219.392 0 1 1-219.434667 380.074666 219.392 219.392 0 0 1 219.434667-380.032z m-27.434667 47.530666a164.522667 164.522667 0 1 0-164.522666 284.970667 164.522667 164.522667 0 0 0 164.522666-284.970667z" fill="#007AFF" p-id="2233"></path></svg>