<?xml version="1.0" standalone="no"?><!DOCTYPE svg PUBLIC "-//W3C//DTD SVG 1.1//EN" "http://www.w3.org/Graphics/SVG/1.1/DTD/svg11.dtd"><svg t="1515482250624" class="icon" style="" viewBox="0 0 1024 1024" version="1.1" xmlns="http://www.w3.org/2000/svg" p-id="2314" xmlns:xlink="http://www.w3.org/1999/xlink" width="20" height="20"><defs><style type="text/css"></style></defs><path d="M219.428571 475.428571l585.142857 0 0 73.142857-585.142857 0 0-73.142857Z" p-id="2315" fill="#dbdbdb"></path><path d="M548.571429 219.428571l0 585.142857-73.142857 0 0-585.142857 73.142857 0Z" p-id="2316" fill="#dbdbdb"></path><path d="M512 1024C794.769792 1024 1024 794.769792 1024 512 1024 229.230208 794.769792 0 512 0 229.230208 0 0 229.230208 0 512 0 794.769792 229.230208 1024 512 1024L512 1024ZM512 950.857143C269.625893 950.857143 73.142857 754.374107 73.142857 512 73.142857 269.625893 269.625893 73.142857 512 73.142857 754.374107 73.142857 950.857143 269.625893 950.857143 512 950.857143 754.374107 754.374107 950.857143 512 950.857143L512 950.857143Z" p-id="2317" fill="#dbdbdb"></path></svg>