<?xml version="1.0" standalone="no"?><!DOCTYPE svg PUBLIC "-//W3C//DTD SVG 1.1//EN" "http://www.w3.org/Graphics/SVG/1.1/DTD/svg11.dtd"><svg t="1515459391510" class="icon" style="" viewBox="0 0 1024 1024" version="1.1" xmlns="http://www.w3.org/2000/svg" p-id="3373" xmlns:xlink="http://www.w3.org/1999/xlink" width="20" height="20"><defs><style type="text/css"></style></defs><path d="M648.55102 622.326531c-6.102041-1.979592-44.612245-19.326531-20.530612-92.469388l-0.346939 0c62.714286-64.6 110.653061-168.591837 110.653061-270.938776 0-157.367347-104.673469-239.844898-226.273469-239.844898-121.693878 0-225.763265 82.477551-225.763265 239.844898 0 102.763265 47.673469 207.163265 110.763265 271.571429 24.579592 64.530612-19.387755 88.489796-28.579592 91.836735-127.387755 46.081633-276.804082 130.040816-276.804082 212.938776l0 31.040816c0 112.938776 218.946939 138.612245 421.571429 138.612245 202.926531 0 419.110204-25.673469 419.110204-138.612245l0-31.040816C932.342857 749.857143 782.163265 666.571429 648.55102 622.326531L648.55102 622.326531z" p-id="3374" fill="#dbdbdb"></path></svg>