<?xml version="1.0" standalone="no"?><!DOCTYPE svg PUBLIC "-//W3C//DTD SVG 1.1//EN" "http://www.w3.org/Graphics/SVG/1.1/DTD/svg11.dtd"><svg t="1515485209915" class="icon" style="" viewBox="0 0 1024 1024" version="1.1" xmlns="http://www.w3.org/2000/svg" p-id="3763" xmlns:xlink="http://www.w3.org/1999/xlink" width="20" height="20"><defs><style type="text/css"></style></defs><path d="M415.291936 383.355061c30.916127 0 55.972802-25.059745 55.972802-55.984059 0-30.90794-25.056676-55.965639-55.972802-55.965639-30.913057 0-55.970756 25.057699-55.970756 55.965639C359.32118 358.295316 384.378879 383.355061 415.291936 383.355061L415.291936 383.355061zM303.347354 495.28634l0 0.017396c0 123.644041 100.233865 223.877907 223.88507 223.877907 123.646088 0 223.882-100.233865 223.882-223.877907l0-0.017396L303.347354 495.28634 303.347354 495.28634zM527.232424 47.514153c-247.295246 0-447.772186 200.468754-447.772186 447.772186 0 247.309572 200.476941 447.772186 447.772186 447.772186 247.300362 0 447.766047-200.462614 447.766047-447.772186C974.999494 247.982908 774.532787 47.514153 527.232424 47.514153L527.232424 47.514153zM527.232424 831.112921c-185.469132 0-335.832721-150.353356-335.832721-335.826582 0-185.474248 150.363589-335.823512 335.832721-335.823512 185.475272 0 335.831698 150.349263 335.831698 335.823512C863.063099 680.759565 712.707696 831.112921 527.232424 831.112921L527.232424 831.112921zM639.171889 383.355061c30.91408 0 55.969733-25.059745 55.969733-55.984059 0-30.90794-25.055652-55.965639-55.969733-55.965639-30.91101 0-55.968709 25.057699-55.968709 55.965639C583.202157 358.295316 608.260879 383.355061 639.171889 383.355061L639.171889 383.355061z" p-id="3764" fill="#dbdbdb"></path></svg>