<?xml version="1.0" standalone="no"?><!DOCTYPE svg PUBLIC "-//W3C//DTD SVG 1.1//EN" "http://www.w3.org/Graphics/SVG/1.1/DTD/svg11.dtd"><svg t="1515485365990" class="icon" style="" viewBox="0 0 1024 1024" version="1.1" xmlns="http://www.w3.org/2000/svg" p-id="5037" xmlns:xlink="http://www.w3.org/1999/xlink" width="20" height="20"><defs><style type="text/css"></style></defs><path d="M114.108418 773.083401a15.80449 15.80449 0 0 1-15.80449-15.80449V276.014129a15.80449 15.80449 0 1 1 31.60898 0v481.264782a15.80449 15.80449 0 0 1-15.80449 15.80449zM185.68018 773.083401c-8.728594 0-15.908348-7.075896-15.908349-15.80449s6.967522-15.80449 15.700632-15.80449h0.212232a15.80449 15.80449 0 1 1-0.004515 31.60898zM257.139052 773.083401c-8.728594 0-15.908348-7.075896-15.908348-15.80449s6.967522-15.80449 15.700632-15.80449h0.212232a15.80449 15.80449 0 1 1-0.004516 31.60898zM328.597925 773.083401c-8.728594 0-15.908348-7.075896-15.908348-15.80449s6.972038-15.80449 15.700632-15.80449h0.212231a15.80449 15.80449 0 1 1-0.004515 31.60898z" p-id="5038" fill="#dbdbdb"></path><path d="M985.139017 831.532921H43.760375c-20.496166 0-34.26865-15.56968-34.26865-38.743578V231.400311c0-23.128742 13.772484-38.666814 34.26865-38.666813h941.387673c20.541321 0 34.336383 15.538071 34.336383 38.666813l-0.009031 561.389032c0 23.173898-13.795062 38.743578-34.336383 38.743578zM42.577296 799.792989c0.018062 0 0.365761 0.130951 1.183079 0.130952h941.378642c0.930207 0 1.27339-0.167076 1.27339-0.167076 0.284481-0.252872 1.454013-2.226175 1.454013-6.967522l0.009031-561.389032c0-4.700707-1.169532-6.63337-1.481106-6.895273-0.009031 0-0.352214-0.158045-1.246297-0.158045H43.760375c-0.925692 0-1.277906 0.16256-1.282421 0.167076-0.248356 0.243841-1.377248 2.235206-1.377249 6.890758v561.389031c0 4.714254 1.160501 6.710135 1.476591 6.999131z" p-id="5039" fill="#dbdbdb"></path></svg>