<?xml version="1.0" standalone="no"?><!DOCTYPE svg PUBLIC "-//W3C//DTD SVG 1.1//EN" "http://www.w3.org/Graphics/SVG/1.1/DTD/svg11.dtd"><svg t="1515460153553" class="icon" style="" viewBox="0 0 1024 1024" version="1.1" xmlns="http://www.w3.org/2000/svg" p-id="3627" xmlns:xlink="http://www.w3.org/1999/xlink" width="20" height="20"><defs><style type="text/css"></style></defs><path d="M519.1168 622.3872c-24.413867 9.0368-35.7376 24.849067-33.28 36.949333 5.282133 8.2688 40.968533-0.4352 63.1296-6.2208-2.065067-8.098133-6.570667-27.3664-8.866133-31.7184-0.2816-0.520533-0.546133-1.032533-0.8192-1.518933-5.316267-0.989867-11.963733-0.520533-20.164267 2.5088zM449.937067 414.933333l0.298666 0.136534 0.9984 0.349866c-0.648533-0.238933-1.066667-0.384-1.297066-0.4864zM449.937067 414.933333c-0.221867-0.085333-0.3072-0.119467 0 0zM446.037333 414.045867c1.493333-0.196267-0.256-0.1536 0 0zM448.648533 414.370133c-1.467733-0.426667-0.8192-0.170667 0.1792 0.196267 0.674133 0.119467 0.9728 0.136533-0.1792-0.196267z" fill="#ff4400" p-id="3628"></path><path d="M1006.5152 147.4816a217.480533 217.480533 0 0 0-129.979733-129.9968C821.179733 0 769.800533 0 666.999467 0H357.0176c-102.801067 0-154.197333 0-209.536 17.4848A217.514667 217.514667 0 0 0 17.493333 147.4816C0 202.811733 0 254.216533 0 357.000533v319.658667c172.6464-50.0992 346.999467-104.533333 518.4512-151.68-13.550933-20.573867-28.168533-39.5008-39.552-48.64-15.7184-12.6208 13.687467-38.929067 37.8368-21.5296 11.136 8.021333 15.965867 17.553067 20.497067 30.702933 1.902933 5.495467 7.133867 16.989867 13.602133 30.651734 80.213333-21.6576 159.735467-41.5488 238.062933-58.487467 25.7536-5.572267 77.2352-16.827733 124.5696-18.926933 47.146667-2.0992 90.197333 4.881067 99.549867 35.6352 23.381333 76.919467-83.968 138.990933-136.2176 162.218666-34.798933 15.4624-20.881067-21.085867 9.685333-36.829866 37.486933-19.319467 90.581333-74.0864 85.666134-99.285334-10.120533-51.746133-277.367467 20.650667-371.7632 41.736534-9.130667 2.030933-20.266667 4.718933-33.152 7.9872 10.333867 21.248 19.848533 40.763733 22.203733 46.865066 1.5872 4.1472 3.0208 8.064 4.1984 11.818667 1.083733 2.235733 2.304 4.9152 3.464533 7.7824 0.597333 0.9472 1.2032 1.954133 1.7664 2.9696 30.5664 54.784-63.829333 115.054933-79.752533 134.903467 47.633067-19.848533 72.362667-30.549333 92.936533-36.1472 22.698667-6.186667 31.317333 11.767467 21.819734 24.413866-29.184 38.852267-56.584533 72.32-79.104 95.829334 13.8496-0.836267 152.285867-20.6336 204.535466-19.370667 18.5344 0.452267 33.962667 29.252267 0 48.733867-139.733333 80.136533-171.101867 97.646933-264.3968 142.8992-20.949333 10.1632-68.48-2.619733-42.496-15.317334 97.536-47.6672 248.584533-131.6352 261.4528-138.581333-42.2144 4.795733-188.1856 24.2688-210.286933 22.417067-8.285867-0.699733-5.546667-20.053333 0-28.296534 29.5168-43.835733 40.2176-52.4032 72.917333-86.314666-15.3344 6.766933-53.998933 26.581333-103.099733 32.1792-20.753067 2.3808-28.8-15.9488-12.996267-32.1792 23.185067-23.816533 50.3296-44.2368 83.8656-79.8464l-0.068266-0.136534c-40.004267 10.487467-99.0976 7.68-91.784534-31.291733 6.050133-32.170667 39.031467-56.712533 73.181867-63.035733 3.882667-0.8192 19.063467-3.968 27.229867-4.1472-3.4304-7.970133-8.482133-17.954133-14.498134-28.680534C408.763733 591.803733 167.150933 662.536533 0.068267 711.005867c0.349867 74.7008 2.628267 118.698667 17.425066 165.512533a217.4464 217.4464 0 0 0 129.988267 129.979733C202.811733 1024 254.216533 1024 357.0176 1024h309.981867c102.801067 0 154.180267 0 209.536-17.501867a217.412267 217.412267 0 0 0 129.979733-129.979733c17.501867-55.3472 17.501867-106.734933 17.501867-209.536V357.000533c0-102.784 0-154.1888-17.501867-209.518933zM243.0464 75.7504c5.418667-24.874667 28.868267-31.650133 49.954133-37.435733C329.386667 28.3648 385.851733 37.265067 419.413333 53.060267c24.132267 11.357867 123.118933 79.556267 56.413867 107.178666-23.970133 9.9328-52.1472-21.623467-27.886933-37.154133 0 0.059733-0.785067-1.1008-3.780267-5.649067-11.485867-18.679467-43.5968-30.446933-59.170133-36.590933-48.8704-19.268267-91.997867-3.140267-91.997867-3.140267l-3.933867 5.998934c-6.161067 28.2624-51.694933 18.090667-46.011733-7.953067z m-9.344 80.546133c-7.901867-6.485333-19.0464-9.6-28.296533-7.338666s-19.3536-17.288533-4.445867-38.075734c14.916267-20.770133 36.565333 3.524267 54.4 14.984534 17.851733 11.451733 98.013867 192.119467 98.013867 200.2688-13.883733 2.5856-33.1008 5.5808-38.818134 4.352-5.7088-1.2288-40.226133-99.771733-80.853333-174.190934z m144.861867 272.401067c-2.730667 1.553067-17.646933 10.999467-20.5824 7.8848-7.031467-7.3984-15.453867-13.653333-23.4496-19.950933-6.417067-5.051733-12.9536-11.067733-20.164267-14.993067-1.245867-0.674133 16.1024-12.654933 17.4848-13.422933 3.950933-2.2016 15.931733-10.436267 20.599467-7.8848 7.2192 3.933867 13.7472 9.949867 20.164266 15.0016 8.004267 6.289067 16.418133 12.544 23.4496 19.950933 1.8688 1.962667-16.0512 12.6208-17.501866 13.4144z m76.305066-9.8304l-0.384-0.878933-0.384-0.375467c-0.247467-0.2304-1.083733-0.887467-1.629866-1.3312l-0.802134-0.4864c-0.597333-0.349867-1.066667-0.5632-1.4336-0.733867a45.909333 45.909333 0 0 1-1.399466-0.503466c-0.750933-0.119467-1.954133-0.366933-2.235734-0.401067a1.8432 1.8432 0 0 1-0.5632-0.128 40.226133 40.226133 0 0 1-1.117866 0.128c-10.717867 1.0752-23.048533-4.0448-25.582934-15.616-2.3296-10.7008 6.664533-21.051733 17.220267-22.109867 20.846933-2.090667 47.8464 5.742933 57.531733 26.461867 11.392 24.4224-28.919467 38.024533-39.2192 15.9744z m134.946134 19.1488c-10.052267 2.286933-22.766933 0.7936-29.866667-7.714133-5.5808-6.673067-1.28-14.762667-1.28-14.762667 0.9472-0.913067 0.452267-5.1456-0.733867-6.818133-3.2512-4.650667-7.466667-8.9344-11.451733-12.936534a117.589333 117.589333 0 0 0-13.934933-12.117333c-1.979733-1.450667-4.437333-2.722133-6.331734-4.2752a1.851733 1.851733 0 0 1-0.597333-0.059733c-7.662933-1.681067-20.266667-9.565867-17.570133-19.268267 2.816-10.103467 16.546133-10.1376 24.704-8.354133 20.9152 4.5824 39.765333 22.161067 53.666133 37.5552 10.632533 11.767467 31.880533 42.248533 3.396267 48.750933z m130.688 4.164267c-13.346133-31.112533-137.7024-111.104-164.002134-121.847467-29.764267-12.1344-55.620267-4.2752-86.1184-4.514133-44.1856-0.349867-78.882133-25.352533-99.720533-61.047467-5.7856 1.152-11.5968 2.312533-17.450667 3.396267-7.9872 1.4848-21.179733-0.187733-21.0176-11.0336 0.1536-10.683733 14.532267-17.467733 23.253334-19.063467l2.184533-0.418133c-6.016-14.250667-11.332267-28.868267-16.520533-43.485867-1.954133 1.3824-3.498667 3.8144-4.718934 7.8848-7.748267 26.0608-50.500267 7.611733-43.434666-16.170667 5.802667-19.464533 17.92-29.1328 32.896-33.015466-5.034667-11.6992-9.898667-24.260267 2.6368-33.024 10.1632-7.108267 26.6496-10.359467 36.130133-7.918934 8.098133 2.090667 2.8672 27.810133 2.8672 27.810134l4.599467 14.1056c15.616 3.106133 30.916267 7.927467 43.281066 11.4944 26.820267 7.714133 19.9168 47.035733-9.198933 38.647466-6.382933-1.834667-12.8-3.575467-19.268267-5.128533 4.6848 14.097067 8.704 26.026667 9.949867 29.218133 0.247467 0.648533 0.520533 1.288533 0.768 1.9456 19.797333-3.4816 39.637333-5.9904 60.168533-5.265066 30.114133 1.0752 6.7328 31.880533-13.5168 31.163733-11.229867-0.401067-22.186667 0.3328-33.0496 1.698133 14.4128 23.150933 34.952533 39.099733 69.316267 40.123734 43.281067 1.28 66.3808-8.260267 107.281067 10.973866 38.818133 18.269867 164.4032 111.0016 175.982933 138.0352 7.031467 16.349867-37.230933 19.566933-43.298133 5.435734z m99.217066-48.477867c-17.885867-1.851733-10.120533-23.517867-17.399466-31.1296a829.969067 829.969067 0 0 0-25.480534-13.858133c-5.504-2.747733-31.598933-11.357867-30.583466-10.589867l-1.962667 6.664533c-3.217067 10.197333-13.6192 9.1648-20.9664 3.746134-13.397333-9.8816-27.298133-35.3536-10.7008-49.134934 17.220267-14.2848 47.069867 2.6624 63.249067 10.8032 21.154133 10.615467 46.754133 22.434133 59.349333 43.579734 9.745067 16.366933 8.9088 42.436267-15.505067 39.918933z" fill="#ff4400" p-id="3629"></path><path d="M452.881067 416.418133c-1.262933-0.853333-1.015467-0.6144-0.418134-0.136533 0.938667 0.580267 2.133333 1.3056 0.418134 0.136533zM526.148267 379.3408l0.068266 0.0512c0.452267-0.0512-0.733867-0.605867-0.068266-0.0512zM455.4496 418.9952c-0.546133-0.861867-1.4848-2.286933-0.964267-0.9984 0.298667 0.290133 0.682667 0.6656 0.964267 0.9984zM455.4496 418.9952l0.3328 0.5376c0.034133-0.093867-0.136533-0.298667-0.3328-0.5376z" fill="#ff4400" p-id="3630"></path></svg>